<svg width="512" height="512" viewBox="0 0 512.01 512">
    <path
        d="m256 512c141.38 0 256-114.63 256-256s-114.62-256-256-256-256 114.63-256 256 114.62 256 256 256z"
        fill="#f0f0f0" />
    <path
        d="m509.84 222.58h-220.44v-220.44a262.86 262.86 0 0 0 -66.79 0v220.44h-220.44a258.81 258.81 0 0 0 0 66.85h220.44v220.44a262.86 262.86 0 0 0 66.79 0v-220.44h220.44a258.81 258.81 0 0 0 0-66.85zm-354-100.26v-33.32h-33.52v33.28h-33.32v33.42h33.28v33.42h33.39v-33.38h33.43v-33.42zm233.71-33.32v33.28h33.54v33.42h-33.39v33.42h-33.54v-33.39h-33.39v-33.42h33.39v-33.31zm-233.71 267.12v-33.28h-33.52v33.28h-33.32v33.42h33.28v33.46h33.39v-33.32h33.43v-33.42zm233.71-33.27v33.28l33.54.14v33.42h-33.39v33.31h-33.54v-33.45h-33.39v-33.42h33.39v-33.28z"
        fill="#d80027" fill-rule="evenodd" />
</svg>